# Exported from ProBuilder
# http://www.procore3d.com/probuilder
# 22/01/2019 12:34:19 PM

mtllib ./TankTurret.mtl
o TankTurret

g TankTurret
v 0.1785 -0.005777836 0.18088
v -0.1785 -0.005777836 0.18088
v 0.1785 0.2108925 0.18088
v -0.1785 0.2108925 0.18088
v -0.1785 -0.005777836 0.18088
v -0.1785 -0.005777836 -0.17612
v -0.1785 0.2108925 0.18088
v -0.1785 0.2108925 -0.17612
v -0.1785 -0.005777836 -0.17612
v 0.1785 -0.005777836 -0.17612
v -0.1785 0.2108925 -0.17612
v 0.1785 0.2108925 -0.17612
v 0.1785 -0.005777836 -0.17612
v 0.1785 -0.005777836 0.18088
v 0.1785 0.2108925 -0.17612
v 0.1785 0.2108925 0.18088
v 0.1785 0.2108925 0.18088
v -0.1785 0.2108925 0.18088
v 0.1785 0.2108925 -0.17612
v -0.1785 0.2108925 -0.17612
v 0.1785 -0.005777836 -0.17612
v -0.1785 -0.005777836 -0.17612
v 0.1785 -0.005777836 0.18088
v -0.1785 -0.005777836 0.18088
v -0.05 0.09677947 0.179809
v -0.05 0.09703541 0.3798088
v -0.03535534 0.06142414 0.1798542
v -0.03535534 0.06168008 0.3798541
v -0.03535534 0.06142414 0.1798542
v -0.03535534 0.06168008 0.3798541
v 2.18557E-09 0.04677951 0.179873
v 2.18557E-09 0.0470354 0.3798728
v 2.18557E-09 0.04677951 0.179873
v 2.18557E-09 0.0470354 0.3798728
v 0.03535534 0.06142414 0.1798542
v 0.03535534 0.06168008 0.3798541
v 0.03535534 0.06142414 0.1798542
v 0.03535534 0.06168008 0.3798541
v 0.05 0.09677947 0.179809
v 0.05 0.09703541 0.3798088
v 0.05 0.09677947 0.179809
v 0.05 0.09703541 0.3798088
v 0.03535534 0.1321348 0.1797638
v 0.03535534 0.1323907 0.3797636
v 0.03535534 0.1321348 0.1797638
v 0.03535534 0.1323907 0.3797636
v -5.962441E-10 0.1467794 0.179745
v -5.962441E-10 0.1470354 0.3797449
v -5.962441E-10 0.1467794 0.179745
v -5.962441E-10 0.1470354 0.3797449
v -0.03535533 0.1321348 0.1797638
v -0.03535533 0.1323907 0.3797636
v -0.03535533 0.1321348 0.1797638
v -0.03535533 0.1323907 0.3797636
v -0.05 0.09677947 0.179809
v -0.05 0.09703541 0.3798088
v -0.05 0.09677947 0.179809
v 0 0.09677947 0.179809
v -0.03535534 0.06142414 0.1798542
v -0.05 0.09703541 0.3798088
v 0 0.09703541 0.3798088
v -0.03535534 0.06168008 0.3798541
v -0.03535534 0.06142414 0.1798542
v 0 0.09677947 0.179809
v 2.18557E-09 0.04677951 0.179873
v -0.03535534 0.06168008 0.3798541
v 0 0.09703541 0.3798088
v 2.18557E-09 0.0470354 0.3798728
v 2.18557E-09 0.04677951 0.179873
v 0 0.09677947 0.179809
v 0.03535534 0.06142414 0.1798542
v 2.18557E-09 0.0470354 0.3798728
v 0 0.09703541 0.3798088
v 0.03535534 0.06168008 0.3798541
v 0.03535534 0.06142414 0.1798542
v 0 0.09677947 0.179809
v 0.05 0.09677947 0.179809
v 0.03535534 0.06168008 0.3798541
v 0 0.09703541 0.3798088
v 0.05 0.09703541 0.3798088
v 0.05 0.09677947 0.179809
v 0 0.09677947 0.179809
v 0.03535534 0.1321348 0.1797638
v 0.05 0.09703541 0.3798088
v 0 0.09703541 0.3798088
v 0.03535534 0.1323907 0.3797636
v 0.03535534 0.1321348 0.1797638
v 0 0.09677947 0.179809
v -5.962441E-10 0.1467794 0.179745
v 0.03535534 0.1323907 0.3797636
v 0 0.09703541 0.3798088
v -5.962441E-10 0.1470354 0.3797449
v -5.962441E-10 0.1467794 0.179745
v 0 0.09677947 0.179809
v -0.03535533 0.1321348 0.1797638
v -5.962441E-10 0.1470354 0.3797449
v 0 0.09703541 0.3798088
v -0.03535533 0.1323907 0.3797636
v -0.03535533 0.1321348 0.1797638
v 0 0.09677947 0.179809
v -0.05 0.09677947 0.179809
v -0.03535533 0.1323907 0.3797636
v 0 0.09703541 0.3798088
v -0.05 0.09703541 0.3798088

vn 0 0 1
vn 0 0 1
vn 0 0 1
vn 0 0 1
vn -1 0 0
vn -1 0 0
vn -1 0 0
vn -1 0 0
vn 0 0 -1
vn 0 0 -1
vn 0 0 -1
vn 0 0 -1
vn 1 0 0
vn 1 0 0
vn 1 0 0
vn 1 0 0
vn 0 1 0
vn 0 1 0
vn 0 1 0
vn 0 1 0
vn 0 -1 0
vn 0 -1 0
vn 0 -1 0
vn 0 -1 0
vn -0.9238796 7.450581E-08 2.677552E-09
vn -0.9238795 2.235174E-07 2.904562E-08
vn -0.6532816 -0.6532809 0.0008359468
vn -0.6532819 -0.6532807 0.0008360128
vn -0.6532816 -0.6532809 0.0008359468
vn -0.6532819 -0.6532807 0.0008360128
vn 3.72529E-07 -0.9238789 0.001182095
vn 3.874302E-07 -0.9238786 0.001182094
vn 3.72529E-07 -0.9238789 0.001182095
vn 3.874302E-07 -0.9238786 0.001182094
vn 0.6532813 -0.653281 0.0008360097
vn 0.6532816 -0.6532809 0.0008359422
vn 0.6532813 -0.653281 0.0008360097
vn 0.6532816 -0.6532809 0.0008359422
vn 0.9238796 1.043081E-07 2.764864E-08
vn 0.9238796 2.682209E-07 -1.135049E-09
vn 0.9238796 1.043081E-07 2.764864E-08
vn 0.9238796 2.682209E-07 -1.135049E-09
vn 0.6532816 0.6532808 -0.0008358834
vn 0.6532819 0.6532809 -0.0008358448
vn 0.6532816 0.6532808 -0.0008358834
vn 0.6532819 0.6532809 -0.0008358448
vn -3.427267E-07 0.9238789 -0.001182229
vn -3.427267E-07 0.9238786 -0.001182229
vn -3.427267E-07 0.9238789 -0.001182229
vn -3.427267E-07 0.9238786 -0.001182229
vn -0.6532812 0.6532812 -0.0008358445
vn -0.6532814 0.6532812 -0.000835886
vn -0.6532812 0.6532812 -0.0008358445
vn -0.6532814 0.6532812 -0.000835886
vn -0.9238796 7.450581E-08 2.677552E-09
vn -0.9238795 2.235174E-07 2.904562E-08
vn 0 -0.001279577 -0.9999991
vn 0 -0.001279577 -0.9999991
vn 0 -0.001279577 -0.9999991
vn 0 0.001279577 0.9999991
vn 0 0.001279577 0.9999991
vn 0 0.001279577 0.9999991
vn 1.342813E-07 -0.001279712 -0.9999992
vn 1.342813E-07 -0.001279712 -0.9999992
vn 1.342813E-07 -0.001279712 -0.9999992
vn -1.327699E-07 0.00127971 0.9999992
vn -1.327699E-07 0.00127971 0.9999992
vn -1.327699E-07 0.00127971 0.9999992
vn -1.342814E-07 -0.001279712 -0.9999992
vn -1.342814E-07 -0.001279712 -0.9999992
vn -1.342814E-07 -0.001279712 -0.9999992
vn 1.327699E-07 0.00127971 0.9999992
vn 1.327699E-07 0.00127971 0.9999992
vn 1.327699E-07 0.00127971 0.9999992
vn 0 -0.001279577 -0.9999991
vn 0 -0.001279577 -0.9999991
vn 0 -0.001279577 -0.9999991
vn 0 0.001279577 0.9999991
vn 0 0.001279577 0.9999991
vn 0 0.001279577 0.9999991
vn 0 -0.001279577 -0.9999991
vn 0 -0.001279577 -0.9999991
vn 0 -0.001279577 -0.9999991
vn 0 0.001278737 0.9999992
vn 0 0.001278737 0.9999992
vn 0 0.001278737 0.9999992
vn 1.342813E-07 -0.001279712 -0.9999991
vn 1.342813E-07 -0.001279712 -0.9999991
vn 1.342813E-07 -0.001279712 -0.9999991
vn -3.790169E-07 0.001279116 0.9999992
vn -3.790169E-07 0.001279116 0.9999992
vn -3.790169E-07 0.001279116 0.9999992
vn -1.342814E-07 -0.001279712 -0.9999992
vn -1.342814E-07 -0.001279712 -0.9999992
vn -1.342814E-07 -0.001279712 -0.9999992
vn -4.639075E-07 0.001279116 0.9999992
vn -4.639075E-07 0.001279116 0.9999992
vn -4.639075E-07 0.001279116 0.9999992
vn 0 -0.001279577 -0.9999991
vn 0 -0.001279577 -0.9999991
vn 0 -0.001279577 -0.9999991
vn 0 0.00127958 0.9999992
vn 0 0.00127958 0.9999992
vn 0 0.00127958 0.9999992

vt 0 0
vt -0.3 0
vt 0 0.3
vt -0.3 0.3
vt 0 0
vt -0.3 0
vt 0 0.3
vt -0.3 0.3
vt 0.3 0
vt 0 0
vt 0.3 0.3
vt 0 0.3
vt 0.3 0
vt 0 0
vt 0.3 0.3
vt 0 0.3
vt 0 0
vt 0.3 0
vt 0 -0.3
vt 0.3 -0.3
vt 0 -0.3
vt -0.3 -0.3
vt 0 0
vt -0.3 0
vt -0.01913417 0
vt -0.01913417 0.2
vt 0.01913417 0
vt 0.01913417 0.2
vt -0.01913418 0
vt -0.01913418 0.2
vt 0.01913417 0
vt 0.01913417 0.2
vt -0.01913417 0
vt -0.01913417 0.2
vt 0.01913417 0
vt 0.01913417 0.2
vt -0.01913418 0
vt -0.01913418 0.2
vt 0.01913417 0
vt 0.01913417 0.2
vt -0.01913417 0
vt -0.01913417 0.2
vt 0.01913417 0
vt 0.01913417 0.2
vt -0.01913417 0
vt -0.01913417 0.2
vt 0.01913418 0
vt 0.01913418 0.2
vt -0.01913417 0
vt -0.01913417 0.2
vt 0.01913417 0
vt 0.01913417 0.2
vt -0.01913418 0
vt -0.01913418 0.2
vt 0.01913418 0
vt 0.01913418 0.2
vt -0.05 0
vt 0 0
vt -0.03535534 0.03535534
vt 0.05 0
vt 0 0
vt 0.03535534 0.03535534
vt -0.03535534 0.03535534
vt 0 0
vt 2.18557E-09 0.05
vt 0.03535534 0.03535534
vt 0 0
vt -2.18557E-09 0.05
vt 2.18557E-09 0.05
vt 0 0
vt 0.03535534 0.03535534
vt -2.18557E-09 0.05
vt 0 0
vt -0.03535534 0.03535534
vt 0.03535534 0.03535534
vt 0 0
vt 0.05 -4.371139E-09
vt -0.03535534 0.03535534
vt 0 0
vt -0.05 -4.371139E-09
vt 0.05 -4.371139E-09
vt 0 0
vt 0.03535534 -0.03535534
vt -0.05 -4.371139E-09
vt 0 0
vt -0.03535534 -0.03535534
vt 0.03535534 -0.03535534
vt 0 0
vt -5.962441E-10 -0.05
vt -0.03535534 -0.03535534
vt 0 0
vt 5.962441E-10 -0.05
vt -5.962441E-10 -0.05
vt 0 0
vt -0.03535533 -0.03535534
vt 5.962441E-10 -0.05
vt 0 0
vt 0.03535533 -0.03535534
vt -0.03535533 -0.03535534
vt 0 0
vt -0.05 0
vt 0.03535533 -0.03535534
vt 0 0
vt 0.05 0

g TankTurret_0
usemtl TankBase
f 3/3/3 4/4/4 2/2/2 1/1/1
f 7/7/7 8/8/8 6/6/6 5/5/5
f 11/11/11 12/12/12 10/10/10 9/9/9
f 15/15/15 16/16/16 14/14/14 13/13/13
f 19/19/19 20/20/20 18/18/18 17/17/17
f 23/23/23 24/24/24 22/22/22 21/21/21
f 27/27/27 28/28/28 26/26/26 25/25/25
f 31/31/31 32/32/32 30/30/30 29/29/29
f 35/35/35 36/36/36 34/34/34 33/33/33
f 39/39/39 40/40/40 38/38/38 37/37/37
f 43/43/43 44/44/44 42/42/42 41/41/41
f 47/47/47 48/48/48 46/46/46 45/45/45
f 51/51/51 52/52/52 50/50/50 49/49/49
f 55/55/55 56/56/56 54/54/54 53/53/53

g TankTurret_1
usemtl TankBase
f 57/57/57 58/58/58 59/59/59
f 63/63/63 64/64/64 65/65/65
f 69/69/69 70/70/70 71/71/71
f 75/75/75 76/76/76 77/77/77
f 81/81/81 82/82/82 83/83/83
f 87/87/87 88/88/88 89/89/89
f 93/93/93 94/94/94 95/95/95
f 99/99/99 100/100/100 101/101/101
f 62/62/62 61/61/61 60/60/60
f 68/68/68 67/67/67 66/66/66
f 74/74/74 73/73/73 72/72/72
f 80/80/80 79/79/79 78/78/78
f 86/86/86 85/85/85 84/84/84
f 92/92/92 91/91/91 90/90/90
f 98/98/98 97/97/97 96/96/96
f 104/104/104 103/103/103 102/102/102

